<?xml version="1.0" encoding="utf-8"?>
<svg version="1.1" id="pic_1" xmlns="http://www.w3.org/2000/svg" xmlns:xlink="http://www.w3.org/1999/xlink" x="0px" y="0px"
	 viewBox="0 0 587.8 185.8" style="enable-background:new 0 0 587.8 185.8;" xml:space="preserve">
<style type="text/css">
	.st0{fill:#7C33B3;}
	.st1{fill:#FFFFFF;}
	.st2{fill:#D0D3D6;}
	.st3{fill:none;stroke:#7C33B3;stroke-miterlimit:10;}
	.st4{fill:none;stroke:#7C33B3;stroke-miterlimit:10;stroke-dasharray:5.0093,5.0093;}
	.st5{fill:none;stroke:#7C33B3;stroke-miterlimit:10;stroke-dasharray:4.9572,4.9572;}
	.st6{fill:none;stroke:#7C33B3;stroke-miterlimit:10;stroke-dasharray:5.0269,5.0269;}
	.st7{fill:none;stroke:#7C33B3;stroke-miterlimit:10;stroke-dasharray:5.014,5.014;}
	.st8{fill:none;stroke:#7C33B3;stroke-miterlimit:10;stroke-dasharray:5;}
	.st9{opacity:0.1;fill:#7C33B3;}
	.st10{opacity:0.2;fill:#7C33B3;}
	.st11{opacity:0.3;fill:#7C33B3;}
	.st12{opacity:0.4;fill:#7C33B3;}
	.st13{opacity:0.5;fill:#7C33B3;}
	.st14{opacity:0.6;fill:#7C33B3;}
	.st15{opacity:0.7;fill:#7C33B3;}
	.st16{opacity:0.8;fill:#7C33B3;}
	.st17{opacity:0.9;fill:#7C33B3;}
</style>
<g>
	<polygon class="st0" points="96.6,131.1 2,131.1 2,145.1 104.7,145.1 	"/>
	<polygon class="st0" points="2,159.1 2,173.2 120.9,173.2 112.8,159.1 	"/>
	<path class="st0" d="M171.2,24.9h-48.6V14.3l24.3-10.6h-24.3v0H92.6C43.4,3.8,3.4,42.9,2,91.8v25.3h86.5L68.1,81.7
		c-1.5-2.5-2.2-5.3-2.2-8.1c0-5.6,2.9-11,8.1-14.1l20.1,34.7c3.1,5.4,9,8.8,15.2,8.8h13.2v-57L171.2,24.9z"/>
</g>
<g>
	<g>
		<polygon class="st0" points="230.3,73.1 230.3,78 208.7,78 203.7,73.1 203.7,53.3 208.7,53.3 208.7,73.1 		"/>
	</g>
	<g>
		<polygon class="st0" points="327.9,61.6 324.1,65.4 327.9,69.2 327.9,78 322.9,78 322.9,70.9 319.9,67.9 304.5,67.9 304.5,78
			299.5,78 299.5,53.3 304.5,53.3 304.5,62.9 319.9,62.9 322.9,60 322.9,53.3 327.9,53.3 		"/>
	</g>
	<g>
		<polygon class="st0" points="371.6,58.3 371.6,62.9 392.8,62.9 392.8,67.9 371.6,67.9 371.6,72.6 392.8,72.6 392.8,77.5
			371.6,77.5 371.6,77.6 371.2,77.6 366.7,73.1 366.7,53.3 392.8,53.3 392.8,58.3 		"/>
	</g>
	<g>
		<polygon class="st0" points="423.5,73.1 423.5,73.1 418.5,78 401.9,78 396.9,73.1 396.9,57.8 401.9,52.8 418.5,52.8 423.5,57.7
			423.5,57.8 401.9,57.8 401.9,73.1 		"/>
	</g>
	<g>
		<polygon class="st0" points="361.7,73.1 361.7,73.7 357.3,78 332.5,78 332.5,73.1 357.2,73.1 357.2,67.9 336.8,67.9 332.5,63.6
			332.5,57.8 337,53.3 361.7,53.3 361.7,58.3 337.5,58.3 337.5,62.9 358.3,62.9 361.7,66.4 		"/>
	</g>
	<g>
		<path class="st0" d="M258.2,53.3h-19.4l-5,4.5v15.3l5.5,5h18.9l5-5V57.8L258.2,53.3z M258.2,73.1h-19.4V58.3h19.4V73.1z"/>
	</g>
	<g>
		<path class="st0" d="M198.9,57.8l-5-5h-24.4v24.8h24.4l5-5v-4.9l-2.2-2.2l2.2-2.3V57.8z M193.9,72.6h-19.4v-4.7h19.4V72.6z
			 M193.9,62.9h-19.4v-5.2h19.4V62.9z"/>
	</g>
	<g>
		<polygon class="st0" points="272.8,73.1 294.4,73.1 289.5,78 273.3,78 267.8,73.1 267.8,57.8 272.8,53.3 289.5,53.3 294.4,58.3
			272.8,58.3 		"/>
	</g>
</g>
<g>
	<path class="st0" d="M171.6,103.6h12.2v22.2h28.5v-22.2h12.2v57.1h-12.2v-23.3h-28.5v23.3h-12.2V103.6z"/>
	<path class="st0" d="M256.5,118.7c14.6,0,24,8.9,24,21.6c0,12.8-9.4,21.7-24,21.7c-14.6,0-24-8.2-24-21.7S241.9,118.7,256.5,118.7z
		 M256.5,151c8.6,0,11.7-4.8,11.7-10.7s-3.1-10.6-11.7-10.6c-8.7,0-11.7,4.7-11.7,10.6S247.8,151,256.5,151z"/>
	<path class="st0" d="M308.9,118.7c14.6,0,24,8.9,24,21.6c0,12.8-9.4,21.7-24,21.7c-14.6,0-24-8.2-24-21.7S294.3,118.7,308.9,118.7z
		 M308.9,151c8.6,0,11.7-4.8,11.7-10.7s-3.1-10.6-11.7-10.6c-8.7,0-11.7,4.7-11.7,10.6S300.2,151,308.9,151z"/>
	<path class="st0" d="M364.7,120h13.9l-17.1,15.7l21.3,25h-13.9l-15-18.6l-4,3.4l0.2,15.1h-11.4v-59.1h11.4v25.7
		c0,3.4-1.8,7.3-3.2,10.4l1.8,0.9c1.4-3.1,3.1-7.1,5.7-9.3L364.7,120z"/>
	<path class="st0" d="M427.3,118.6c-4.7-4.3-10.6-6.3-18.4-6.3c-4.6,0-8.8,1.9-8.8,5c0,7.6,37.8,6.5,37.8,27.2
		c0,10.4-11.3,17.5-28.1,17.5c-10.4,0-17-3-24.5-11.3l8.6-6.9c4.2,4.5,8.3,6.9,17.7,6.9c6.9,0,10.8-2.4,10.8-6
		c0-9.6-35.7-8.8-35.7-26.7c0-9,10.7-15.6,25.3-15.6c8.9,0,16.4,2.9,23.9,9.1L427.3,118.6z"/>
	<path class="st0" d="M464.7,118.7c13.9,0,21.6,8.2,22.4,17h-12.3c0,0-2.4-6.3-10.4-6.2c-6.3,0-10.6,3.8-10.6,10.5
		c-0.1,6.7,4.2,11.2,10.8,11.2c7.8,0.1,10.5-6.2,10.5-6.2h12.3c-1.4,9.2-9.1,17-22.4,17c-13.7,0-22.5-8.3-22.5-21.9
		C442.5,126.4,451.3,118.7,464.7,118.7z"/>
	<path class="st0" d="M510.2,162c-12,0-20.6-9.8-20.6-21.9c0-12.2,8.6-21.4,20.6-21.4c5.4,0,9.5,1.9,12.5,5.1c1.7,1.8,2,5.1,2.7,7.5
		l2-0.7c-0.7-2.3-2.2-5.1-2.2-7.6v-3.1h11.4v40.8h-11.4v-3.3c0-2.4,1.5-5.4,2.1-7.7l-1.9-0.7c-0.7,2.4-1,5.7-2.6,7.6
		C519.8,159.9,515.6,162,510.2,162z M511,151.4c5.7,0,10-5.2,10.1-11.3c0-6.2-3.5-10.8-10.1-10.8c-5.7,0-9.9,4.6-9.9,10.8
		C501,146.1,505.3,151.4,511,151.4z"/>
	<path class="st0" d="M572.1,118.7c8.2,0,14.6,4.7,14.6,14v28h-11.4v-19.7c0-7.4-2.6-10.8-8.2-10.8c-6,0-11.1,3.3-11.1,10.8v19.7
		h-11.4v-40.8h11.4v0.5c0,3.6-1.8,7.8-3.1,11.3l1.9,0.7c1.3-3.4,2.4-8.2,5.3-10.4C563.4,119.4,567.1,118.7,572.1,118.7z"/>
</g>
</svg>
